<svg id="图层_1" data-name="图层 1" width="250px" xmlns="http://www.w3.org/2000/svg" viewBox="0 0 415.52 91.81"><defs><style>.cls-1{fill:#fff;}</style></defs><title>万必司匹萨新logo</title><path class="cls-1" d="M179,237.85v3.35q0,7.85,0,15.69c0,1.82-.14,1.93-1.9,1.92H164.32c-1.53,0-1.75-.17-1.76-1.74V214c0-1.71.21-1.9,2-1.79a64.7,64.7,0,0,0,11,0,2.85,2.85,0,0,1,2.82,1.39c4.34,5.88,8.73,11.73,13.11,17.59.36.48.74,1,1.37,1.77,0-.87.12-1.39.12-1.91v-16.2c0-.39,0-.79,0-1.18.06-1.3.23-1.52,1.48-1.44a104.54,104.54,0,0,0,13.48,0c1.26-.09,1.44.15,1.5,1.42,0,.28,0,.56,0,.84v42c0,2.35,0,2.3-2.32,2.26-2.81,0-5.63-.09-8.43.05a4.19,4.19,0,0,1-3.89-1.77c-4.74-6.07-9.56-12.08-14.35-18.12-.34-.42-.71-.83-1.06-1.24Z" transform="translate(-98.41 -211.5)"/><path class="cls-1" d="M124,211.55a38.69,38.69,0,0,1,9.83,1.66c8.31,2.75,13.19,8.51,14.79,17a25.37,25.37,0,0,1-.73,13.33c-2.64,7.44-8,12.16-15.39,14.45a29.7,29.7,0,0,1-20.17-.81c-7.69-3.07-12.29-8.83-13.49-17a26.1,26.1,0,0,1,.66-11.87c2.72-8.53,8.61-13.65,17.18-15.75A70.88,70.88,0,0,1,124,211.55Zm8.11,24.51a28,28,0,0,0-1.34-7.32A7.47,7.47,0,0,0,117.1,228a12,12,0,0,0-1.34,5.17c-.15,3.46.12,6.86,1.81,10a7.24,7.24,0,0,0,7.16,4.11c3.33-.18,5.38-2.18,6.28-5.23A48.69,48.69,0,0,0,132.06,236.06Z" transform="translate(-98.41 -211.5)"/><path class="cls-1" d="M416.16,258.74c-.54-2.21-1.11-4.38-1.55-6.58a2.18,2.18,0,0,1,.51-1.47c2.21-3,4.46-5.94,6.7-8.9l12-15.89c.37-.48.72-1,1.2-1.63a5.33,5.33,0,0,0-.92-.18c-4.05.08-8.1.09-12.14.28a49.59,49.59,0,0,0-5.66.86c-1.16.2-1.46,0-1.37-1.14q.39-5.13.85-10.26c.12-1.4.5-1.65,2.17-1.63,7.54.1,15.08.24,22.62.26,5.18,0,10.35-.16,15.53-.24H458c.19,1.51.27,3,.59,4.47.5,2.22-.19,3.87-1.63,5.61-6.25,7.54-12.34,15.21-18.48,22.83l-1.26,1.6a6.56,6.56,0,0,0,1.11.19c4.45,0,8.89,0,13.33-.22a45.38,45.38,0,0,0,6-.91c1.34-.25,1.62-.07,1.53,1.3-.21,3.26-.42,6.52-.67,9.77-.14,1.91-.24,2-2.11,2-13-.22-26-.36-39,0C417,258.83,416.63,258.77,416.16,258.74Z" transform="translate(-98.41 -211.5)"/><path class="cls-1" d="M400.77,212.21c.27,2.43.59,4.7.73,7a3,3,0,0,1-.81,1.74q-7.06,8.84-14.18,17.62l-5.5,6.83c-.32.39-.6.8-1,1.34a4,4,0,0,0,.87.19c4.5,0,9,0,13.5-.22a45.2,45.2,0,0,0,6-.9c1.31-.24,1.61-.13,1.54,1.12-.21,3.6-.47,7.19-.71,10.78a1.09,1.09,0,0,1-1.2,1.13h-.84c-13.05-.23-26.1-.36-39.15,0h-1c-.26-1-.54-1.92-.75-2.89-.33-1.47-1.06-3-.79-4.41s1.57-2.39,2.45-3.56l16.79-22.21c.34-.44.64-.9,1.08-1.51a5.39,5.39,0,0,0-.9-.16c-4.1.08-8.21.1-12.31.29a47,47,0,0,0-5.49.85c-1.21.21-1.48,0-1.38-1.31q.4-5.05.9-10.08c.15-1.45.45-1.67,2-1.64,4.28.08,8.55.25,12.83.24,8.49,0,17-.15,25.48-.22Z" transform="translate(-98.41 -211.5)"/><path class="cls-1" d="M240.77,224.25v5.56H255c.39,0,.79,0,1.18,0,1,.1,1.26.32,1.2,1.39-.13,2.47-.32,4.94-.5,7.41,0,.51-.08,1-.14,1.51-.12,1.13-.4,1.43-1.49,1.27a88.81,88.81,0,0,0-12.63-.48h-1.79V247a3.51,3.51,0,0,0,.89.19c4.77-.14,9.55-.26,14.33-.48a24.56,24.56,0,0,0,3.46-.67c1.1-.22,1.47.07,1.4,1.19q-.27,4.88-.6,9.77c-.13,1.76-.27,1.88-2,1.86-6.48-.07-12.95-.21-19.42-.22-4.22,0-8.44.13-12.66.21-.39,0-.78,0-1.18,0a1,1,0,0,1-1-.93c0-.45,0-.9,0-1.35V213.83c.05-1.46.23-1.63,1.68-1.64.74,0,1.47,0,2.2,0,9.79.38,19.58.17,29.37,0,3-.07,2.94.36,2.67,2.92-.25,2.29-.36,4.6-.53,6.9-.05.67-.08,1.35-.19,2-.18,1-.5,1.26-1.51,1-5.47-1.62-11.06-.82-16.61-.93C241,224.05,241,224.11,240.77,224.25Z" transform="translate(-98.41 -211.5)"/><path class="cls-1" d="M290.9,241.8v14.72c0,.39,0,.79,0,1.18,0,.75-.37,1.15-1.15,1.12l-.84,0c-4.22,0-8.44,0-12.65,0-1.9,0-2-.05-2-2V214.29c0-.22,0-.45,0-.67.06-1.14.26-1.35,1.38-1.48l.51,0c7.14-.08,14.28-.21,21.42-.22a23.34,23.34,0,0,1,7.28,1.33c7.32,2.42,10.2,8.14,9.4,15.36-.61,5.58-3.78,9.24-8.9,11.29a29.71,29.71,0,0,1-12.43,1.77c-.51,0-1,0-1.52,0C291.3,241.58,291.2,241.67,290.9,241.8Zm.07-19.3V232c2.25.86,4.13.53,5.29-.88a6.72,6.72,0,0,0,.39-7.14C295.46,222.21,293.55,221.7,291,222.5Z" transform="translate(-98.41 -211.5)"/><path class="cls-1" d="M343.66,235.7v20.58c0,.45,0,.9,0,1.35,0,.82-.41,1.25-1.27,1.19-.22,0-.45,0-.67,0-4.27,0-8.55,0-12.82,0-1.76,0-1.93-.11-1.93-1.89V214.07c0-1.78.15-1.85,2-1.83q6.4,0,12.81,0c1.78,0,1.91,0,1.91,1.87Q343.67,224.9,343.66,235.7Z" transform="translate(-98.41 -211.5)"/><path class="cls-1" d="M489.39,235.53v20.91c0,.39,0,.79,0,1.18,0,.84-.38,1.25-1.24,1.2s-1.57-.09-2.36-.08c-3.54,0-7.08,0-10.62,0-.45,0-.9.05-1.35,0a1,1,0,0,1-1.05-1.06c0-.39,0-.79,0-1.18V213.91c0-1.57.2-1.77,1.77-1.66a97.66,97.66,0,0,0,13.14,0c1.57-.11,1.71.06,1.71,1.69Q489.4,224.74,489.39,235.53Z" transform="translate(-98.41 -211.5)"/><path class="cls-1" d="M358.88,276.45l.07-1.07H349.7a1.76,1.76,0,0,1-1.85,1.72,2,2,0,0,1-2.29-1.84c-1.95,0-3.8.05-5.65,0a1.74,1.74,0,0,1-1.58-2.7,1.77,1.77,0,0,1,1.85-.9c1.74,0,3.48,0,5.3,0,.3-1.25.78-2.3,2.3-2.18a1.84,1.84,0,0,1,1.85,2.12h9a9,9,0,0,1,1-1.71,1.94,1.94,0,0,1,1.24-.4c1.12-.06,1.59.41,2.19,2.17,1.53,0,3.14,0,4.75,0a7.83,7.83,0,0,1,1.68.11,1.65,1.65,0,0,1,1.31,1.73,1.56,1.56,0,0,1-1.26,1.59c-.7.16-1.42.22-2.19.33l.48,1.78a11.38,11.38,0,0,1,1.25.23,1.55,1.55,0,0,1,1.17,1.65,1.39,1.39,0,0,1-1.29,1.51,7.59,7.59,0,0,1-1.35.08h-6.58c-.55,0-1.09,0-1.6.07-.31.87.12,1,.71,1,1.46,0,2.93,0,4.39,0,2.74-.08,4.12.08,3.86,3.85-.1,1.4,0,2.81,0,4.22,0,2.15-.11,2.29-2.09,3.17.75,0,1.5,0,2.24.1,1.27.11,1.95.83,1.88,1.92s-.71,1.6-1.95,1.66c-.72,0-1.44,0-2.36,0,0,.93-.06,1.75-.07,2.57,0,2.23-.78,3.1-3,3.58a12.61,12.61,0,0,1-5.19-.14,2,2,0,0,1-1.76-2.13c.13-.9.93-1.49,2.14-1.51.79,0,1.57.09,2.36.1,1.6,0,1.73-.11,1.7-1.71a6,6,0,0,0-.11-.71c-3.2-.09-6.42,0-10,0,.55.59.87.94,1.2,1.28a16,16,0,0,1,1.29,1.32,1.62,1.62,0,0,1,.09,1.91,1.5,1.5,0,0,1-1.78.63,6.71,6.71,0,0,1-3.72-3.22c-.25-.43.06-1.18.12-1.93-.86,0-1.8,0-2.73,0-1.11,0-1.55-.5-1.62-1.53s.37-1.83,1.37-2a19.33,19.33,0,0,1,2.53-.09h7.31l-1-2h-4.94a2,2,0,0,1-2.42,1.55c-1-.17-1.46-.5-1.49-1.5-.05-2.47-.06-4.95,0-7.42,0-1.28.81-1.89,2.29-1.94,1.69-.06,3.38,0,5.06,0a6,6,0,0,0,1.34-.08c.19,0,.3-.38.63-.84-.79-.07-1.31-.15-1.83-.15q-3.37,0-6.75,0a1.64,1.64,0,0,1-1.67-2.48c.37-.8,1.11-.86,1.86-.86h7.85c1.35-1.76,1.95-1.9,3.71-.93.29.31.56.86.86.88,1.51.09,3,0,4.7,0l-.48-1.95a.9.9,0,0,0-1.25.56,2,2,0,0,1-2.66,1Zm-.35,16.6h3c.21,0,.58-.05.61-.16.36-1.13,1.42-1.28,2.28-1.81h-4.85Zm-8.56-8.2c.49.21.79.47,1.08.45,1.48-.07,3,.35,4.68-.35A8.59,8.59,0,0,0,350,284.85Zm9.41-.13c1.36.86,4.39.77,5.54-.23A18.92,18.92,0,0,0,359.38,284.72Zm-3.8,3.76c-.74-.89-.74-.9-4.08-.77-.48,0-1.18-.26-1.28.77Zm9.13,0c-.75-.89-.75-.9-4.08-.77-.48,0-1.19-.26-1.29.77Z" transform="translate(-98.41 -211.5)"/><path class="cls-1" d="M436.28,275.75h-4c0,.77,0,1.48,0,2.19a40.27,40.27,0,0,1-.61,8.56,11.64,11.64,0,0,1-5,7.32c-1.22.86-2.29.82-3,0a2.32,2.32,0,0,1,.34-3.31c.59-.59,1.21-1.17,1.77-1.8a8,8,0,0,0,2-4,45.64,45.64,0,0,0,.36-8.87,20.93,20.93,0,0,0-4.4,0c-.31,0-.69.49-.85.84a2.78,2.78,0,0,0-.07,1.16c0,4.78.08,9.56.11,14.34,0,1-.11,2-.11,3,0,2.13.09,2.22,2.15,2.23h21.94a8.45,8.45,0,0,1,1.51.07,1.82,1.82,0,0,1,1.56,1.91,1.8,1.8,0,0,1-1.6,1.87,7.59,7.59,0,0,1-1.35.07h-24.8c-2.67-.11-3.62-1.06-3.62-3.77q0-11,0-21.94a8.52,8.52,0,0,1,.17-1.67,2.31,2.31,0,0,1,2-2,11.4,11.4,0,0,1,1.84-.14h24a7.74,7.74,0,0,1,1.67.13,1.72,1.72,0,0,1,1.42,1.83,1.74,1.74,0,0,1-1.42,1.84,8.53,8.53,0,0,1-1.68.11h-6.11c-.05.55-.11.93-.11,1.31,0,3.43,0,6.86,0,10.29a5.65,5.65,0,0,0,.06,1,1.43,1.43,0,0,0,.27.78c.92,1,2.12.44,3.19.48.76,0,1-.63,1.16-1.25s.08-1,.18-1.5a1.87,1.87,0,0,1,2-1.68c1.05,0,1.66.64,1.66,1.91a23,23,0,0,1-.33,3.51,3,3,0,0,1-2.91,2.79,40,40,0,0,1-5.89.09c-2.29-.2-3.36-1.57-3.39-4.05,0-3.88,0-7.76,0-11.65Z" transform="translate(-98.41 -211.5)"/><path class="cls-1" d="M198.36,297.65H186.27a14.45,14.45,0,0,1-1.86,0,2.62,2.62,0,0,1-2.6-2.61c-.11-2.81-.13-5.63,0-8.43.08-1.8,1.24-2.71,3.21-2.73,3.1,0,6.19,0,9.29,0,1.91,0,3.82,0,5.73,0,2.09,0,3,.91,3,3q.06,4.4,0,8.78a9.6,9.6,0,0,1-.48,2,3.86,3.86,0,0,0,.89.32c2.62.39,2.95.1,2.95-2.49v-18.4c0-1.91-.07-2-2-2H184.11c-.45,0-.9,0-1.35,0a1.72,1.72,0,0,1-1.78-1.83,1.85,1.85,0,0,1,1.67-2.14,8.67,8.67,0,0,1,1.35,0h22.44c3.53,0,4.26.74,4.26,4.25v22.28c0,3.52-.9,4.53-4.43,4.71a26.52,26.52,0,0,1-4.36-.26,6.46,6.46,0,0,1-2-.73C198.23,300.45,197.93,299.73,198.36,297.65Zm.54-4.11v-5.71c-.65-.05-1.19-.13-1.73-.13h-9.43a4.12,4.12,0,0,0-1.17.07c-.28.09-.68.37-.7.59a21.41,21.41,0,0,0,.06,5.18Z" transform="translate(-98.41 -211.5)"/><path class="cls-1" d="M112.21,275.77v4.61h14c2.52,0,3.39.79,3.34,3.33-.08,4.33-.22,8.66-.49,13-.19,3.21-2.18,4.94-5.41,5.08a20.3,20.3,0,0,1-8.4-1.49c-1.35-.54-1.7-1.23-1.32-2.47a1.9,1.9,0,0,1,2.5-1.36c1.59.33,3.16.78,4.76,1.07,2.64.47,3.64-.16,3.87-2.8.26-3,.24-6.06.33-9.09,0-.71-.25-1.21-1.06-1.21H111.75c-.21.92-.4,1.73-.59,2.54a30.34,30.34,0,0,1-6.5,13.35,8.3,8.3,0,0,1-1.6,1.48,2.16,2.16,0,0,1-2.79-.17c-.65-.7-.63-1.56.07-2.62a6.82,6.82,0,0,1,.63-.79,28.9,28.9,0,0,0,6.82-16.39,23.55,23.55,0,0,0,.17-5.95c-.61,0-1.16-.08-1.71-.08-1.52,0-3,0-4.55,0a1.84,1.84,0,0,1-2-2,1.93,1.93,0,0,1,2.06-2.13c.33,0,.67,0,1,0h26.32a12.17,12.17,0,0,1,1.35,0,2,2,0,0,1-.09,4.08c-.45,0-.9,0-1.35,0H112.21Z" transform="translate(-98.41 -211.5)"/><path class="cls-1" d="M393.47,280.76c-.58-.05-1-.05-1.36-.12a1.74,1.74,0,0,1-1.62-2,1.82,1.82,0,0,1,1.77-1.89c.67,0,1.34,0,2.3,0-.66-1.28-1.19-2.36-1.77-3.42-.75-1.39-.69-2.12.32-2.76a2,2,0,0,1,2.95.59c1.1,1.63,2.23,3.27,2.16,5.48h4c.56-1.62,1.1-3.25,1.69-4.88.52-1.46,1.37-2,2.48-1.61a2.09,2.09,0,0,1,1.22,2.9c-.38,1.17-.89,2.29-1.39,3.58.56,0,1,.07,1.51.12a1.58,1.58,0,0,1,1.65,1.74,1.79,1.79,0,0,1-1.5,2.1,17.2,17.2,0,0,1-1.89.16c-.06,2.24-.05,4.46,0,6.81.82.05,1.53.06,2.24.14,1.19.13,1.8.75,1.82,1.8a1.91,1.91,0,0,1-1.83,2c-.67.07-1.34,0-2.12,0A13.93,13.93,0,0,0,406,293c0,2.42,0,4.84,0,7.26a12.17,12.17,0,0,1,0,1.35,1.86,1.86,0,0,1-1.77,1.73,2,2,0,0,1-2.12-1.55,6.8,6.8,0,0,1-.1-1.5c0-2.81,0-5.62,0-8.55h-4.6c-.06.42-.14.89-.2,1.37a14,14,0,0,1-2.68,7.18,9.78,9.78,0,0,1-2.18,2.08,3.29,3.29,0,0,1-2,.45,1.55,1.55,0,0,1-1.11-2.53,6.68,6.68,0,0,1,1.05-1.08c2.12-2,2.82-4.59,3-7.61-1,0-1.86,0-2.69,0a1.85,1.85,0,0,1-1.75-1.11,1.82,1.82,0,0,1,1.54-2.7c.94-.1,1.9,0,3.07,0C393.52,285.34,393.51,283.12,393.47,280.76Zm4.12,0v6.8h4.31c.07-2.33.06-4.58,0-6.8Z" transform="translate(-98.41 -211.5)"/><path class="cls-1" d="M316,274.69c0-1,0-1.77,0-2.5.05-1.5.77-2.27,2.11-2.28a2.22,2.22,0,0,1,2.39,2.27c.07.77.13,1.55.19,2.41h3.94c-.47-.72-1.23-.87-1.79-1.24-1.11-.73-1.44-1.54-1-2.53a1.8,1.8,0,0,1,2.42-.88,11.26,11.26,0,0,1,2.29,1c1.68,1,1.86,1.65,1.08,3.6.33.05.63.08.92.14a2.21,2.21,0,0,1,2,2.45c-.09,1.21-.84,1.88-2.32,1.92-1.8.05-3.6,0-5.4,0h-1.63c-.52,4.42,2.31,14.91,4.58,16.81.25-.79.51-1.51.69-2.25s.31-1.77.55-2.64a2,2,0,0,1,3.91.46,20.47,20.47,0,0,1-1.77,8.52c-1.15,2.35-3.29,2.8-5.24,1a14.78,14.78,0,0,1-2.49-3.16,34.36,34.36,0,0,1-4-11.73c-.43-2.26-.76-4.54-1.16-7H301.53a10.14,10.14,0,0,1-1.35,0,2,2,0,0,1-1.9-2,2.14,2.14,0,0,1,1.64-2.26,7.24,7.24,0,0,1,1.68-.12H316Z" transform="translate(-98.41 -211.5)"/><path class="cls-1" d="M148.39,299.17c-1.57.61-3.4,1.34-5.24,2a5.86,5.86,0,0,1-1.8.39,1.79,1.79,0,0,1-1.85-1.41c-.17-.83.12-1.36,1.13-1.83,1.94-.89,3.88-1.77,5.85-2.59a1.93,1.93,0,0,0,1.27-2.09c0-5.85,0-11.7,0-17.56a8.43,8.43,0,0,1,.12-1.67,1.7,1.7,0,0,1,1.78-1.48,1.79,1.79,0,0,1,1.93,1.52,7.57,7.57,0,0,1,.08,1.51v16.77a13.21,13.21,0,0,0,1.28-.9,28.13,28.13,0,0,0,9.19-15.93c.14-.66.25-1.33.43-2a2,2,0,0,1,2.49-1.69c1.12.28,1.67,1.28,1.39,2.67-1.81,8.7-5.4,16.32-13,21.52a2.56,2.56,0,0,0-.36.41,1.53,1.53,0,0,0,1.53.82,50.17,50.17,0,0,0,5.06-.07,3,3,0,0,0,3.06-2.84c.18-.94.16-1.91.27-2.85.16-1.34.78-2,1.85-2a1.93,1.93,0,0,1,2,2.09,24.57,24.57,0,0,1-.48,5,5.44,5.44,0,0,1-4.53,4.27,19.86,19.86,0,0,1-9,0A24.69,24.69,0,0,1,148.39,299.17Z" transform="translate(-98.41 -211.5)"/><path class="cls-1" d="M276.09,293.4c.73.87,1.26,1.45,1.73,2.07.69.91.7,1.59.1,2.28a1.74,1.74,0,0,1-2.28.45,12.81,12.81,0,0,1-2.61-2.79c-.28-.41.06-1.25.14-2.08h-4.91c-1.3,0-2.59,0-3.88,0a1.8,1.8,0,0,1-2-2c-.05-2.19-.05-4.39,0-6.58,0-1.56.74-2.23,2.32-2.25,2.25,0,4.5,0,6.75,0h12.83a11,11,0,0,1,1.52.05,1.6,1.6,0,0,1,1.56,1.68c.05,2.47.06,4.95,0,7.42,0,1.23-.64,1.71-2,1.73-2.64,0-5.29,0-7.93,0Zm-9.61-6.95h16.63c0-1.22,0-1.25-1.14-1.25H267.32a4.52,4.52,0,0,0-.84.15Zm16.63,2.75H266.57c-.05,1.24-.05,1.27,1.08,1.27,4.77,0,9.53,0,14.3,0h.51C283.27,290.43,283.32,290,283.11,289.2Z" transform="translate(-98.41 -211.5)"/><path class="cls-1" d="M272.69,272.73c-.42-.91-1-1.54-.51-2.39a2,2,0,0,1,2.93-.71,7.92,7.92,0,0,1,3.11,3.1h8.21a6.29,6.29,0,0,1,1.51.1,1.64,1.64,0,0,1,1.19,2,1.34,1.34,0,0,1-1.4,1.38c-1.46,0-2.92,0-4.5,0-.21.57-.4,1.06-.7,1.85h3c1.12,0,2.25,0,3.37,0a1.48,1.48,0,0,1,1.59,1.58,1.61,1.61,0,0,1-1.58,1.8,8.47,8.47,0,0,1-1,0H261.77c-.34,0-.68,0-1,0a1.66,1.66,0,0,1-1.59-1.81,1.51,1.51,0,0,1,1.6-1.59c2.13,0,4.27,0,6.42,0-.33-1.63-.48-1.79-1.87-1.82-.85,0-1.69,0-2.53,0-1.28-.06-2-.78-2-1.83s.71-1.62,2-1.63c2.92,0,5.85,0,8.77,0Zm-1.42,3.6c.13,1.1.64,1.56,1.68,1.52,1.39-.05,2.79,0,4.19,0,1.24,0,1.24,0,1.3-1.5Z" transform="translate(-98.41 -211.5)"/><path class="cls-1" d="M476.34,278.72c.29-1.09.52-2,.81-3h-8a9.52,9.52,0,0,1-.92,1.89A1.86,1.86,0,0,1,467,278c-1.15.06-1.68-.54-2.12-2.32h-5.83a1.71,1.71,0,0,1-1.8-1,1.65,1.65,0,0,1,1.55-2.45c1.4-.06,2.81,0,4.22,0h1.8c.54-1.89,1.08-2.49,2.17-2.49s1.61.52,2,2.49h8a10.29,10.29,0,0,1,1.08-2.13,2,2,0,0,1,1.42-.36c1.11,0,1.41.46,1.87,2.49h4.16c.62,0,1.24,0,1.85,0a1.64,1.64,0,0,1,1.57,1.83,1.53,1.53,0,0,1-1.62,1.58c-1.41.06-2.81,0-4.22,0h-1.82a14.68,14.68,0,0,0-.3,1.46c-.09,1.05.35,1.55,1.42,1.57,1.4,0,2.81,0,4.22,0a4.59,4.59,0,0,1,1.17.09,1.68,1.68,0,0,1,1.14,1.84,1.52,1.52,0,0,1-1.36,1.48,5,5,0,0,1-.67,0c-4.72,0-9.45,0-14.17,0-1.51,0-2.11-.55-2.09-1.78,0-1,.46-1.58,1.51-1.62C473.63,278.68,475,278.72,476.34,278.72Z" transform="translate(-98.41 -211.5)"/><path class="cls-1" d="M465.85,282.15h-3.73c-.05.67-.15,1.31-.15,2,0,5.22,0,10.44,0,15.67a12.17,12.17,0,0,1,0,1.35,1.8,1.8,0,0,1-3.59,0,6.79,6.79,0,0,1,0-1q0-9.27,0-18.54a7.57,7.57,0,0,1,.1-1.51,1.73,1.73,0,0,1,1.87-1.59c2.64,0,5.28-.06,7.92,0,1.42,0,2,.78,1.87,2.2a11.21,11.21,0,0,1-.72,2.59c-.49,1.25-1.09,2.46-1.69,3.79.4.49.83,1,1.23,1.52a6.68,6.68,0,0,1,.94,7.27,5,5,0,0,1-6.09,2.62,1.92,1.92,0,0,1-1.48-2.15c.14-.83.71-1.26,1.85-1.38h.17c2.48-.19,3.3-1.68,2.07-3.89a14.72,14.72,0,0,0-1.75-2.47,2,2,0,0,1-.33-2.46c.33-.65.64-1.31.91-2S465.58,283,465.85,282.15Z" transform="translate(-98.41 -211.5)"/><path class="cls-1" d="M305.91,296.07V288c0-.39-.05-.77-.08-1.27a12.71,12.71,0,0,0-1.32-.15c-.95,0-1.91,0-2.86-.05a1.82,1.82,0,0,1-1.78-1.7,2,2,0,0,1,1.41-2.22,5.39,5.39,0,0,1,1.5-.15h10.28a6,6,0,0,1,1.34.1A2.12,2.12,0,0,1,316,284.7a1.87,1.87,0,0,1-1.86,1.82c-1.22.08-2.45,0-3.81,0v8.21l2.77-.81c.65-.19,1.28-.44,1.94-.58a2,2,0,0,1,2.36,1.14,2.16,2.16,0,0,1-.77,2.54,4.22,4.22,0,0,1-1.2.6c-4.52,1.33-9.05,2.63-13.57,3.94a1.94,1.94,0,0,1-.33.07c-1.44.19-2.55-.39-2.86-1.48a2.32,2.32,0,0,1,1.89-2.75C302.24,296.92,304,296.55,305.91,296.07Z" transform="translate(-98.41 -211.5)"/><path class="cls-1" d="M478.12,287.78h3.4c.62-1.39,1.17-2.73,1.81-4a1.52,1.52,0,0,1,2.18-.94c1,.32,1.38.85,1.07,1.91s-.68,1.89-1.09,3c.59,0,1.11.09,1.63.1,1.62.05,2.31.58,2.29,1.8s-.63,1.63-2.21,1.64H476.58c-.5,0-1,.05-1.62.09-.16,1.21-.23,2.38-.47,3.51-.42,2-.88,3.94-1.44,5.87a4.81,4.81,0,0,1-1.14,1.84,1.86,1.86,0,0,1-2.46.17c-.67-.49-.81-1.09-.44-2.11a41.07,41.07,0,0,0,1.72-4.72,29.09,29.09,0,0,0,.44-4.68c0-.5,0-1,0-1.51.16-1.37.67-1.81,2.08-1.89.28,0,.56,0,1,0-.16-.46-.26-.8-.39-1.13-.21-.52-.47-1-.64-1.56-.44-1.38-.19-2.05.9-2.47s1.83-.2,2.42,1.07S477.57,286.34,478.12,287.78Z" transform="translate(-98.41 -211.5)"/><path class="cls-1" d="M283.22,295.62a6.15,6.15,0,0,1,.58-.79,2.17,2.17,0,0,1,3.41-.06,48.25,48.25,0,0,1,3.56,4.48,1.59,1.59,0,0,1-.19,2.28,1.9,1.9,0,0,1-2.6.11c-.76-.67-1.4-1.46-2.09-2.2-.46-.48-.91-1-1.53-1.64-.17.62-.27,1-.38,1.42-.5,1.93-1.53,3-3.5,3.1-3.48.14-7,.17-10.44,0-2.38-.11-3.38-1.39-3.43-3.74,0-1,0-1.92,0-2.87a1.94,1.94,0,0,1,3.88.12V296c.1,2.39.48,2.8,2.86,2.88,1.52.05,3,0,4.55,0A2.6,2.6,0,0,0,280.6,297C281.1,295.5,281.44,295.42,283.22,295.62Z" transform="translate(-98.41 -211.5)"/><path class="cls-1" d="M381.33,283.28a11.3,11.3,0,0,1,1.1-.42c1.27-.34,2.72.14,2.66,2-.08,2.81,0,5.62,0,8.43v2.16l1.32-.93a16.43,16.43,0,0,1,1.33-1,2.06,2.06,0,0,1,2.62.29,1.88,1.88,0,0,1,0,2.49,21.15,21.15,0,0,1-5.93,5.18c-1.57.88-2.73.22-3.09-1.55a4.87,4.87,0,0,1-.09-1q0-7.17,0-14.33c0-.45.08-.9.12-1.35Z" transform="translate(-98.41 -211.5)"/><path class="cls-1" d="M381.33,283.28l0,0a7.41,7.41,0,0,1-1.32,1,1.44,1.44,0,0,1-2.18-1.4,4.21,4.21,0,0,1,.44-1.78,45.71,45.71,0,0,0,3.37-9.34c.36-1.38,1.11-1.9,2.26-1.73a1.58,1.58,0,0,1,1.54,1.84c-.07.89-.25,1.77-.4,2.84,1,0,1.85,0,2.73,0,2,.05,2.59.62,2.33,2.56a28.23,28.23,0,0,1-.92,4.27,2.78,2.78,0,0,1-1.12,1.38,1.8,1.8,0,0,1-2.07-.17,1.71,1.71,0,0,1-.66-1.79c.12-.77.27-1.52.42-2.42H383.9Z" transform="translate(-98.41 -211.5)"/><path class="cls-1" d="M192.71,277.61h9.42a8.58,8.58,0,0,1,1.68.11,1.8,1.8,0,0,1,1.46,1.81,1.9,1.9,0,0,1-1.44,1.85,3.29,3.29,0,0,1-.83.08c-6.9,0-13.81,0-20.71,0a1.88,1.88,0,0,1-2-2.44c.18-1.05.7-1.43,2.11-1.44C185.86,277.59,189.28,277.61,192.71,277.61Z" transform="translate(-98.41 -211.5)"/><path class="cls-1" d="M145.62,281.06c-.46,3.22-.91,6.44-1.4,9.65a10.33,10.33,0,0,1-.62,2.1,2.16,2.16,0,0,1-1.71,1.46,1.71,1.71,0,0,1-2.19-2c.13-1.11.45-2.21.58-3.32.44-3.62.87-7.24,1.21-10.87.17-1.85.73-2.7,2.08-2.7s2,.92,2,2.77c0,.95,0,1.9,0,2.86Z" transform="translate(-98.41 -211.5)"/><path class="cls-1" d="M172.65,294.58a13.75,13.75,0,0,1-.48,1.94,2,2,0,0,1-2.19,1.19,1.71,1.71,0,0,1-1.42-1.65c-.22-1.61-.31-3.24-.62-4.83-.56-2.8-1.24-5.57-1.88-8.36-.11-.49-.28-1-.34-1.46a1.74,1.74,0,0,1,2.73-1.64,4,4,0,0,1,1.22,1.53A47.06,47.06,0,0,1,172.65,294.58Z" transform="translate(-98.41 -211.5)"/><path class="cls-1" d="M159.78,280.67a4,4,0,0,1-.13,1,2.13,2.13,0,0,1-1.94,1.39,1.73,1.73,0,0,1-1.72-1.34,5.48,5.48,0,0,1-.23-1,29.94,29.94,0,0,0-2.19-7.41c-.64-1.42-.44-2.16.64-2.68a2.05,2.05,0,0,1,2.88.88A24.57,24.57,0,0,1,159.78,280.67Z" transform="translate(-98.41 -211.5)"/><path class="cls-1" d="M506,226.79a7.63,7.63,0,0,1-7.6-7.81c0-4.65,3.27-7.52,8.45-7.48a7.49,7.49,0,0,1,7.07,7.56A7.78,7.78,0,0,1,506,226.79Zm0-1a6.73,6.73,0,1,0-6.64-6.65A6.74,6.74,0,0,0,506.06,225.79Z" transform="translate(-98.41 -211.5)"/><path class="cls-1" d="M344.81,294.14a2.79,2.79,0,0,1-.19.64c-1,2.08-2,4.16-3,6.21a3.57,3.57,0,0,1-1.25,1.31,1.69,1.69,0,0,1-2-.1,1.72,1.72,0,0,1-.48-2,3.66,3.66,0,0,1,.27-.61q1.51-3,3-6a2.05,2.05,0,0,1,1.91-1.4A1.79,1.79,0,0,1,344.81,294.14Z" transform="translate(-98.41 -211.5)"/><path class="cls-1" d="M260.91,302.85c-1.39-.06-2.76-1.18-1.86-2.85s1.58-3.22,2.38-4.82a2.12,2.12,0,0,1,2-1.32c1.56,0,2.49,1.09,1.91,2.53-.76,1.86-1.7,3.65-2.6,5.45A1.81,1.81,0,0,1,260.91,302.85Z" transform="translate(-98.41 -211.5)"/><path class="cls-1" d="M235.19,289.76a3.31,3.31,0,0,1-.14-6.62,3.2,3.2,0,0,1,3.38,3.23A3.24,3.24,0,0,1,235.19,289.76Z" transform="translate(-98.41 -211.5)"/><path class="cls-1" d="M340.06,284.08a3.85,3.85,0,0,1,1,.45c1.16.86,2.33,1.74,3.42,2.69a2.35,2.35,0,0,1,.82,1.4,3.17,3.17,0,0,1-.59,1.79,1.15,1.15,0,0,1-1.67.22c-1.6-1.2-3.18-2.44-4.7-3.75a1.48,1.48,0,0,1-.16-1.87A1.75,1.75,0,0,1,340.06,284.08Z" transform="translate(-98.41 -211.5)"/><path class="cls-1" d="M340.13,277c1.14.12,5.24,3.44,5.42,4.54a2.56,2.56,0,0,1-.42,1.68,1.29,1.29,0,0,1-1.66.42,3.41,3.41,0,0,1-.89-.46q-1.95-1.61-3.86-3.27a1.46,1.46,0,0,1-.41-2A1.81,1.81,0,0,1,340.13,277Z" transform="translate(-98.41 -211.5)"/><path class="cls-1" d="M504.78,219.74l-.15,3.52H503c-.12-2.86,0-5.68-.06-8.6a15.63,15.63,0,0,1,5,0,2.15,2.15,0,0,1,2,1.78,2.27,2.27,0,0,1-1.16,2.57,7.44,7.44,0,0,0-.66.44l1.69,3.64c-1.6.4-1.6.4-2.22-.87-.27-.56-.52-1.12-.8-1.67C506.3,219.6,506.29,219.6,504.78,219.74Zm.07-1.13c.92-.1,1.63-.16,2.33-.27a1.17,1.17,0,0,0,1.07-1.27,1.27,1.27,0,0,0-1.18-1.38,18,18,0,0,0-2.22,0Z" transform="translate(-98.41 -211.5)"/></svg>